HIERARCHY
ROOT Hips
{
	OFFSET 15.585500 22.159004 44.358299
	CHANNELS 6 Xposition Yposition Zposition Zrotation Xrotation Yrotation
	JOINT Chest
	{
		OFFSET -0.128500 0.160400 6.566002
		CHANNELS 6 Xposition Yposition Zposition Zrotation Xrotation Yrotation
		JOINT Chest2
		{
			OFFSET 0.000000 0.000000 3.554802
			CHANNELS 6 Xposition Yposition Zposition Zrotation Xrotation Yrotation
			JOINT Neck
			{
				OFFSET 0.000000 0.000000 8.267998
				CHANNELS 6 Xposition Yposition Zposition Zrotation Xrotation Yrotation
				JOINT Head
				{
					OFFSET 0.000000 0.000002 2.173897
					CHANNELS 6 Xposition Yposition Zposition Zrotation Xrotation Yrotation
					End Site
					{
						OFFSET 0.000000 0.000000 7.718697
					}
				}
			}
			JOINT LeftCollar
			{
				OFFSET 2.057500 0.117599 5.946301
				CHANNELS 6 Xposition Yposition Zposition Zrotation Xrotation Yrotation
				JOINT LeftShoulder
				{
					OFFSET 4.957699 0.000000 0.000000
					CHANNELS 6 Xposition Yposition Zposition Zrotation Xrotation Yrotation
					JOINT LeftElbow
					{
						OFFSET 0.000000 0.000000 -8.465500
						CHANNELS 6 Xposition Yposition Zposition Zrotation Xrotation Yrotation
						JOINT LeftWrist
						{
							OFFSET 0.000000 -0.000002 -14.594898
							CHANNELS 6 Xposition Yposition Zposition Zrotation Xrotation Yrotation
							End Site
							{
								OFFSET 0.000000 0.000000 -2.173901
							}
						}
					}
				}
			}
			JOINT RightCollar
			{
				OFFSET -3.048500 -0.728800 6.604099
				CHANNELS 6 Xposition Yposition Zposition Zrotation Xrotation Yrotation
				JOINT RightShoulder
				{
					OFFSET -3.710299 0.000000 0.000000
					CHANNELS 6 Xposition Yposition Zposition Zrotation Xrotation Yrotation
					JOINT RightElbow
					{
						OFFSET 0.000000 0.000000 -10.450901
						CHANNELS 6 Xposition Yposition Zposition Zrotation Xrotation Yrotation
						JOINT RightWrist
						{
							OFFSET 0.000000 0.000000 -12.539200
							CHANNELS 6 Xposition Yposition Zposition Zrotation Xrotation Yrotation
							End Site
							{
								OFFSET 0.000000 -0.000002 -2.173901
							}
						}
					}
				}
			}
		}
	}
	JOINT LeftHip
	{
		OFFSET 2.442599 -0.601400 -2.767502
		CHANNELS 6 Xposition Yposition Zposition Zrotation Xrotation Yrotation
		JOINT LeftKnee
		{
			OFFSET 0.000000 -0.000002 -17.033703
			CHANNELS 6 Xposition Yposition Zposition Zrotation Xrotation Yrotation
			JOINT LeftAnkle
			{
				OFFSET 0.000000 -0.000002 -19.318800
				CHANNELS 6 Xposition Yposition Zposition Zrotation Xrotation Yrotation
				End Site
				{
					OFFSET 0.000000 -8.281900 0.000000
				}
			}
		}
	}
	JOINT RightHip
	{
		OFFSET -3.126200 -0.601400 -2.283501
		CHANNELS 6 Xposition Yposition Zposition Zrotation Xrotation Yrotation
		JOINT RightKnee
		{
			OFFSET 0.000000 -0.000002 -16.919401
			CHANNELS 6 Xposition Yposition Zposition Zrotation Xrotation Yrotation
			JOINT RightAnkle
			{
				OFFSET 0.000000 -0.000002 -18.035900
				CHANNELS 6 Xposition Yposition Zposition Zrotation Xrotation Yrotation
				End Site
				{
					OFFSET 0.000000 -9.230099 0.000000
				}
			}
		}
	}
}
MOTION
Frames: 7
Frame Time: 0.041667
25.971302 38.204205 7.215393 -51.464557 -25.118699 -1.236256 -0.128499 0.160401 6.566005 15.472255 18.040539 -3.387309 -0.000001 -0.000004 3.554804 0.176505 -9.801256 -0.657578 0.000001 0.000005 8.267994 32.360548 12.535059 -16.891988 -0.000001 0.000010 2.173897 3.954975 1.257755 7.879135 2.057508 0.117604 5.946305 -6.585410 -5.534784 29.536876 4.957697 0.000006 0.000001 -5.867430 9.351785 -102.908240 -0.000005 -0.000004 -8.465502 942.380761 -174.910845 589.946279 0.000009 0.000000 -14.594894 -1034.158396 -37.069445 -315.685114 -3.048499 -0.728801 6.604101 37.977477 12.111327 -10.401394 -3.710299 0.000002 -0.000011 36.486512 -11.083777 146.654434 0.000007 0.000003 -10.450891 1190.661307 -156.922708 1235.381014 0.000001 0.000004 -12.539196 187.625242 208.715322 -124.323417 2.442601 -0.601394 -2.767501 81.116208 -35.480712 77.683594 -0.000005 -0.000001 -17.033707 -403.664098 40.993832 370.001155 -0.000002 -0.000003 -19.318802 -181.734204 108.361334 527.248147 -3.126198 -0.601396 -2.283498 -93.235982 -48.815396 -61.763393 -0.000007 -0.000009 -16.919394 432.746688 -14.258352 -142.989327 -0.000001 -0.000005 -18.035900 257.290931 51.669469 -96.485766
26.026606 38.230503 7.177696 -51.365901 -25.550737 -1.070856 -0.128501 0.160403 6.566003 15.649444 18.250084 -3.576843 0.000002 0.000005 3.554803 0.178947 -9.738626 -0.647628 0.000002 0.000001 8.268007 32.185323 12.683710 -17.030339 -0.000001 0.000001 2.173890 4.537266 1.026017 6.954805 2.057509 0.117602 5.946304 -6.763257 -5.513419 29.455754 4.957699 0.000004 0.000005 -5.720386 9.311716 -102.820916 -0.000004 0.000005 -8.465500 942.153125 -174.961907 590.457013 0.000000 0.000001 -14.594903 -1034.491600 -36.924102 -316.954000 -3.048498 -0.728797 6.604103 38.252775 12.037907 -10.750329 -3.710294 0.000000 -0.000007 37.727004 -11.496273 146.603658 0.000007 0.000007 -10.450887 1191.614474 -157.032019 1234.912409 0.000002 0.000005 -12.539204 188.362055 209.247599 -123.776633 2.442599 -0.601391 -2.767503 80.707933 -35.770295 77.342214 -0.000006 -0.000003 -17.033707 -405.598599 41.265903 371.039372 -0.000004 -0.000002 -19.318804 -180.931137 108.280300 527.943515 -3.126200 -0.601395 -2.283499 -92.940775 -48.813904 -61.381646 -0.000004 -0.000004 -16.919399 433.115054 -13.851735 -142.936530 -0.000005 -0.000005 -18.035896 258.415098 51.508362 -97.681732
26.075802 38.265602 7.139297 -51.310188 -26.016235 -0.845276 -0.128505 0.160398 6.566007 15.946352 18.517005 -3.895140 0.000002 0.000004 3.554803 0.166833 -9.715651 -0.641608 0.000003 0.000001 8.268000 31.994928 12.849400 -17.117504 -0.000001 -0.000004 2.173897 4.673755 0.918811 7.017361 2.057504 0.117601 5.946303 -7.016215 -5.482812 29.329604 4.957698 -0.000002 0.000006 -5.560386 9.342585 -102.763099 -0.000004 0.000001 -8.465497 941.987889 -175.065603 591.069927 -0.000002 0.000002 -14.594893 -1035.180411 -36.814334 -318.842520 -3.048498 -0.728801 6.604105 38.397524 11.991689 -10.956679 -3.710298 -0.000001 -0.000007 39.190379 -11.992889 146.588181 -0.000001 0.000003 -10.450895 1192.878441 -157.270583 1234.478774 0.000008 0.000005 -12.539189 189.178796 209.649856 -122.864735 2.442595 -0.601391 -2.767503 80.266450 -36.243668 76.922690 -0.000002 -0.000001 -17.033705 -407.044413 41.369100 371.904237 0.000003 -0.000003 -19.318806 -180.336911 107.775611 528.516650 -3.126203 -0.601401 -2.283500 -92.679998 -48.625916 -61.101431 -0.000008 -0.000008 -16.919401 433.853206 -13.206669 -142.848789 -0.000004 -0.000003 -18.035896 260.498169 51.140218 -99.602552
26.122105 38.302109 7.095093 -51.306284 -26.414708 -0.669272 -0.128499 0.160402 6.566004 16.164150 18.734444 -4.112288 -0.000003 -0.000006 3.554809 0.204712 -9.663641 -0.631068 0.000004 -0.000010 8.268006 31.848356 12.931215 -17.229367 0.000002 0.000003 2.173899 4.724064 1.092011 7.006711 2.057507 0.117595 5.946305 -7.071860 -5.520280 29.220912 4.957704 -0.000003 -0.000000 -5.457016 9.408189 -102.699694 0.000000 -0.000007 -8.465502 941.798174 -175.015183 591.593502 -0.000002 -0.000001 -14.594894 -1035.773818 -36.494742 -320.204705 -3.048501 -0.728808 6.604101 38.246399 11.969772 -10.884518 -3.710295 -0.000003 -0.000006 41.106370 -12.663933 146.265468 0.000011 -0.000002 -10.450891 1194.285679 -157.417187 1234.289386 0.000001 0.000003 -12.539191 190.188817 209.910469 -122.419448 2.442599 -0.601398 -2.767503 80.068860 -36.588548 76.633220 -0.000007 -0.000002 -17.033705 -408.844660 41.542116 373.059250 0.000002 -0.000003 -19.318806 -179.136874 107.676983 528.747073 -3.126204 -0.601403 -2.283498 -92.738294 -48.268882 -61.150923 -0.000007 0.000002 -16.919395 435.061303 -12.333783 -142.834350 -0.000003 -0.000002 -18.035896 263.557165 50.778939 -102.659116
26.171204 38.337105 7.052402 -51.282191 -26.789890 -0.510162 -0.128499 0.160399 6.566004 16.380749 18.903402 -4.309276 -0.000000 0.000001 3.554811 0.251799 -9.657170 -0.642333 -0.000004 0.000000 8.267998 31.654822 13.082741 -17.372622 0.000003 0.000002 2.173897 4.743434 1.194879 7.001395 2.057505 0.117604 5.946306 -7.234159 -5.317788 29.255763 4.957695 0.000006 0.000001 -5.365491 9.640237 -102.811477 -0.000007 0.000003 -8.465500 941.853580 -174.925871 592.121175 0.000006 0.000004 -14.594902 -1036.272148 -36.096686 -321.606888 -3.048504 -0.728797 6.604105 38.464415 11.944428 -11.510644 -3.710297 -0.000003 -0.000008 42.417575 -12.876651 146.303499 0.000003 0.000003 -10.450892 1195.399819 -157.527330 1233.961865 0.000005 0.000008 -12.539196 191.424412 210.210628 -121.423702 2.442599 -0.601396 -2.767501 80.015769 -36.729390 76.433389 0.000001 -0.000005 -17.033707 -409.755479 41.774923 373.713445 -0.000004 -0.000003 -19.318804 -178.476012 107.365881 528.609049 -3.126200 -0.601405 -2.283497 -92.525103 -48.167218 -60.941530 -0.000004 -0.000001 -16.919399 436.124572 -11.307290 -142.815677 -0.000002 -0.000003 -18.035898 267.480317 50.176506 -106.861807
26.222099 38.376904 7.015598 -51.219671 -27.203221 -0.409875 -0.128500 0.160402 6.565997 16.586312 19.168986 -4.438294 -0.000003 -0.000005 3.554807 0.243693 -9.615133 -0.636658 0.000001 0.000004 8.268002 31.519677 13.166145 -17.455571 0.000003 -0.000003 2.173898 4.779744 1.348193 6.957463 2.057506 0.117606 5.946304 -7.418625 -5.180303 29.149028 4.957690 0.000001 0.000003 -5.250712 9.703527 -102.822378 -0.000006 0.000000 -8.465499 941.785497 -174.779855 592.661361 0.000003 0.000007 -14.594904 -1036.849490 -35.734542 -322.813400 -3.048502 -0.728799 6.604099 38.753435 11.819579 -11.786365 -3.710296 0.000000 -0.000007 43.190360 -13.098841 145.873921 0.000005 0.000005 -10.450893 1195.724499 -157.607967 1233.516646 0.000003 0.000003 -12.539198 193.109843 210.378310 -120.574012 2.442598 -0.601391 -2.767507 79.890646 -36.729014 76.153153 0.000000 -0.000002 -17.033710 -410.504696 41.924931 374.244697 0.000002 -0.000002 -19.318804 -178.114244 106.840531 528.879251 -3.126199 -0.601403 -2.283501 -92.224042 -48.206690 -60.607151 -0.000004 0.000000 -16.919403 437.394741 -9.957500 -142.862067 -0.000001 -0.000004 -18.035894 272.409172 49.191951 -112.522620
26.271505 38.413307 6.973198 -51.139747 -27.573358 -0.321044 -0.128498 0.160399 6.566004 16.773662 19.411106 -4.602642 0.000001 -0.000004 3.554810 0.187991 -9.563219 -0.646230 0.000002 0.000001 8.268001 31.385402 13.285082 -17.511777 0.000002 0.000002 2.173896 4.813181 1.456843 6.952206 2.057516 0.117599 5.946304 -7.350042 -5.331001 29.077758 4.957695 0.000002 0.000004 -5.177254 9.547144 -102.661425 0.000001 0.000006 -8.465503 941.101385 -174.200874 593.134338 0.000003 0.000000 -14.594901 -1037.107726 -35.173333 -324.150014 -3.048496 -0.728801 6.604098 38.823936 11.773969 -11.590045 -3.710297 -0.000001 -0.000006 43.571611 -13.087279 145.073969 0.000003 0.000010 -10.450895 1195.670185 -157.748178 1233.242346 0.000001 0.000003 -12.539200 194.530126 210.609170 -119.552353 2.442600 -0.601392 -2.767500 79.761296 -36.775361 75.959224 -0.000001 0.000000 -17.033703 -410.261869 42.035020 374.223606 -0.000002 -0.000002 -19.318802 -178.078523 105.709410 528.787344 -3.126200 -0.601399 -2.283498 -92.267967 -48.085990 -60.577569 -0.000003 -0.000001 -16.919395 439.271431 -8.258046 -143.005351 -0.000002 -0.000001 -18.035898 277.357535 47.590012 -118.581701
